<mxfile host="app.diagrams.net" modified="2022-10-24T02:33:13.492Z" agent="5.0 (Windows NT 6.1; Win64; x64) AppleWebKit/537.36 (KHTML, like Gecko) Chrome/106.0.0.0 Safari/537.36" etag="3A1YJJn5w3cLRR_5nFo0" version="20.4.1" type="github">
  <diagram id="VPshLXLEM3kCv6MRDUiI" name="PÃ¡gina-1">
    <mxGraphModel dx="782" dy="1651" grid="1" gridSize="10" guides="1" tooltips="1" connect="1" arrows="1" fold="1" page="1" pageScale="1" pageWidth="827" pageHeight="1169" math="0" shadow="0">
      <root>
        <mxCell id="0" />
        <mxCell id="1" parent="0" />
        <mxCell id="HJRIdihEVHJ9lSsLgpPi-29" value="" style="rounded=0;whiteSpace=wrap;html=1;strokeColor=#3333FF;fontFamily=Helvetica;" vertex="1" parent="1">
          <mxGeometry x="370" y="-180" width="60" height="20" as="geometry" />
        </mxCell>
        <mxCell id="HJRIdihEVHJ9lSsLgpPi-1" value="" style="rounded=0;whiteSpace=wrap;html=1;fontFamily=Helvetica;" vertex="1" parent="1">
          <mxGeometry x="37" y="-280" width="790" height="160" as="geometry" />
        </mxCell>
        <mxCell id="HJRIdihEVHJ9lSsLgpPi-2" value="" style="rounded=0;whiteSpace=wrap;html=1;strokeColor=#3333FF;fontFamily=Helvetica;" vertex="1" parent="1">
          <mxGeometry x="597" y="-270" width="210" height="30" as="geometry" />
        </mxCell>
        <mxCell id="HJRIdihEVHJ9lSsLgpPi-3" value="" style="rounded=0;whiteSpace=wrap;html=1;strokeColor=#3333FF;fontFamily=Helvetica;" vertex="1" parent="1">
          <mxGeometry x="647" y="-265" width="20" height="20" as="geometry" />
        </mxCell>
        <mxCell id="HJRIdihEVHJ9lSsLgpPi-4" value="" style="rounded=0;whiteSpace=wrap;html=1;strokeColor=#3333FF;fontFamily=Helvetica;" vertex="1" parent="1">
          <mxGeometry x="617" y="-265" width="20" height="20" as="geometry" />
        </mxCell>
        <mxCell id="HJRIdihEVHJ9lSsLgpPi-5" value="" style="rounded=0;whiteSpace=wrap;html=1;strokeColor=#3333FF;fontFamily=Helvetica;" vertex="1" parent="1">
          <mxGeometry x="677" y="-265" width="20" height="20" as="geometry" />
        </mxCell>
        <mxCell id="HJRIdihEVHJ9lSsLgpPi-10" value="" style="rounded=0;whiteSpace=wrap;html=1;strokeColor=#3333FF;fontFamily=Helvetica;" vertex="1" parent="1">
          <mxGeometry x="707" y="-265" width="20" height="20" as="geometry" />
        </mxCell>
        <mxCell id="HJRIdihEVHJ9lSsLgpPi-11" value="" style="rounded=0;whiteSpace=wrap;html=1;strokeColor=#3333FF;fontFamily=Helvetica;" vertex="1" parent="1">
          <mxGeometry x="737" y="-265" width="20" height="20" as="geometry" />
        </mxCell>
        <mxCell id="HJRIdihEVHJ9lSsLgpPi-13" value="" style="rounded=0;whiteSpace=wrap;html=1;strokeColor=#3333FF;fontFamily=Helvetica;" vertex="1" parent="1">
          <mxGeometry x="767" y="-265" width="20" height="20" as="geometry" />
        </mxCell>
        <mxCell id="HJRIdihEVHJ9lSsLgpPi-28" value="" style="rounded=0;whiteSpace=wrap;html=1;strokeColor=#3333FF;fontFamily=Helvetica;" vertex="1" parent="1">
          <mxGeometry x="167" y="-170" width="480" height="40" as="geometry" />
        </mxCell>
        <mxCell id="HJRIdihEVHJ9lSsLgpPi-30" value="" style="rounded=0;whiteSpace=wrap;html=1;strokeColor=#3333FF;fontFamily=Helvetica;" vertex="1" parent="1">
          <mxGeometry x="170" y="-165" width="70" height="30" as="geometry" />
        </mxCell>
        <mxCell id="HJRIdihEVHJ9lSsLgpPi-31" value="" style="rounded=0;whiteSpace=wrap;html=1;strokeColor=#3333FF;fontFamily=Helvetica;" vertex="1" parent="1">
          <mxGeometry x="240" y="-165" width="70" height="30" as="geometry" />
        </mxCell>
        <mxCell id="HJRIdihEVHJ9lSsLgpPi-33" value="" style="rounded=0;whiteSpace=wrap;html=1;strokeColor=#3333FF;fontFamily=Helvetica;" vertex="1" parent="1">
          <mxGeometry x="310" y="-165" width="70" height="30" as="geometry" />
        </mxCell>
        <mxCell id="HJRIdihEVHJ9lSsLgpPi-34" value="" style="rounded=0;whiteSpace=wrap;html=1;strokeColor=#3333FF;fontFamily=Helvetica;" vertex="1" parent="1">
          <mxGeometry x="379" y="-165" width="81" height="30" as="geometry" />
        </mxCell>
        <mxCell id="HJRIdihEVHJ9lSsLgpPi-35" value="" style="rounded=0;whiteSpace=wrap;html=1;strokeColor=#3333FF;fontFamily=Helvetica;" vertex="1" parent="1">
          <mxGeometry x="460" y="-165" width="81" height="30" as="geometry" />
        </mxCell>
        <mxCell id="HJRIdihEVHJ9lSsLgpPi-36" value="" style="rounded=0;whiteSpace=wrap;html=1;strokeColor=#3333FF;fontFamily=Helvetica;" vertex="1" parent="1">
          <mxGeometry x="541" y="-165" width="99" height="30" as="geometry" />
        </mxCell>
        <mxCell id="HJRIdihEVHJ9lSsLgpPi-37" value="img" style="whiteSpace=wrap;html=1;aspect=fixed;strokeColor=#3333FF;fontFamily=Helvetica;" vertex="1" parent="1">
          <mxGeometry x="362" y="-265" width="90" height="90" as="geometry" />
        </mxCell>
        <mxCell id="HJRIdihEVHJ9lSsLgpPi-38" value="" style="endArrow=none;html=1;rounded=0;fontFamily=Helvetica;entryX=1;entryY=0;entryDx=0;entryDy=0;exitX=0.406;exitY=-0.125;exitDx=0;exitDy=0;exitPerimeter=0;" edge="1" parent="1" source="HJRIdihEVHJ9lSsLgpPi-28" target="HJRIdihEVHJ9lSsLgpPi-37">
          <mxGeometry width="50" height="50" relative="1" as="geometry">
            <mxPoint x="410" y="-170" as="sourcePoint" />
            <mxPoint x="460" y="-220" as="targetPoint" />
          </mxGeometry>
        </mxCell>
        <mxCell id="HJRIdihEVHJ9lSsLgpPi-39" value="" style="endArrow=none;html=1;rounded=0;fontFamily=Helvetica;exitX=0;exitY=0;exitDx=0;exitDy=0;entryX=1;entryY=1;entryDx=0;entryDy=0;" edge="1" parent="1" source="HJRIdihEVHJ9lSsLgpPi-37" target="HJRIdihEVHJ9lSsLgpPi-37">
          <mxGeometry width="50" height="50" relative="1" as="geometry">
            <mxPoint x="410" y="-170" as="sourcePoint" />
            <mxPoint x="460" y="-220" as="targetPoint" />
          </mxGeometry>
        </mxCell>
      </root>
    </mxGraphModel>
  </diagram>
</mxfile>
